<svg version="1.1" xmlns="http://www.w3.org/2000/svg" xmlns:xlink="http://www.w3.org/1999/xlink" width="19" height="18"><defs/><g><path fill="rgb(255,255,255)" stroke="none" paint-order="stroke fill markers" fill-rule="evenodd" d=" M 17.45226287841797 1.7153253555297852 C 17.401966094970703 1.6769250631332397 17.334083557128906 1.6700642108917236 17.27869415283203 1.6988388299942017 C 17.27869415283203 1.6988388299942017 1.6048088073730469 9.634592056274414 1.6048088073730469 9.634592056274414 C 1.5458908081054688 9.66428828239441 1.5119400024414062 9.72542154788971 1.5170707702636719 9.790446043014526 C 1.5228309631347656 9.854753732681274 1.566986083984375 9.909947752952576 1.6291275024414062 9.930120706558228 C 1.6291275024414062 9.930120706558228 6.589683532714844 11.492039799690247 6.589683532714844 11.492039799690247 C 6.644138336181641 11.509345531463623 6.704315185546875 11.496955037117004 6.746295928955078 11.458452343940735 C 6.746295928955078 11.458452343940735 14.29134750366211 5.072637319564819 14.29134750366211 5.072637319564819 C 14.29134750366211 5.072637319564819 8.495983123779297 11.864471435546875 8.495983123779297 11.864471435546875 C 8.4610595703125 11.905226945877075 8.449214935302734 11.961035370826721 8.464263916015625 12.012850165367126 C 8.47998046875 12.064152956008911 8.520301818847656 12.104703664779663 8.572181701660156 12.12026858329773 C 8.572181701660156 12.12026858329773 14.394153594970703 13.876441955566406 14.394153594970703 13.876441955566406 C 14.409526824951172 13.88074278831482 14.425186157226562 13.883405208587646 14.440902709960938 13.883405208587646 C 14.468730926513672 13.883405208587646 14.49661636352539 13.875725150108337 14.520954132080078 13.862310647964478 C 14.559368133544922 13.839884877204895 14.587539672851562 13.803942203521729 14.598125457763672 13.760933876037598 C 14.598125457763672 13.760933876037598 17.508625030517578 1.879166603088379 17.508625030517578 1.879166603088379 C 17.52334976196289 1.8180333375930786 17.501262664794922 1.7542376518249512 17.45226287841797 1.7153253555297852 Z M 10.275768280029297 13.855449795722961 C 10.275768280029297 13.855449795722961 8.666996002197266 13.365257263183594 8.666996002197266 13.365257263183594 C 8.618282318115234 13.349487543106079 8.564800262451172 13.359010815620422 8.523506164550781 13.389321446418762 C 8.481887817382812 13.419529676437378 8.457874298095703 13.467350840568542 8.457874298095703 13.51824402809143 C 8.457874298095703 13.51824402809143 8.457874298095703 16.525140523910522 8.457874298095703 16.525140523910522 C 8.457874298095703 16.59641146659851 8.505252838134766 16.658671140670776 8.574737548828125 16.678844094276428 C 8.589157104492188 16.682735323905945 8.604206085205078 16.6850905418396 8.619579315185547 16.6850905418396 C 8.673690795898438 16.6850905418396 8.72524642944336 16.657647132873535 8.755992889404297 16.61054277420044 C 8.755992889404297 16.61054277420044 10.364784240722656 14.093634009361267 10.364784240722656 14.093634009361267 C 10.39200210571289 14.051752090454102 10.397457122802734 13.999322891235352 10.379833221435547 13.953037738800049 C 10.362228393554688 13.906240582466125 10.323814392089844 13.870195508003235 10.275768280029297 13.855449795722961 Z"/></g></svg>